<svg xmlns="http://www.w3.org/2000/svg" viewBox="13 38 174 174" width="1024" height="1024"><ellipse cx="78" cy="232" rx="16" ry="10" fill="#EAD5A0" stroke="#16161D" stroke-width="5"/><ellipse cx="122" cy="232" rx="16" ry="10" fill="#EAD5A0" stroke="#16161D" stroke-width="5"/><path d="M100 72 C150 72 176 108 176 154 C176 206 146 228 100 228 C54 228 24 206 24 154 C24 108 50 72 100 72 Z" fill="#EAD5A0"/><path d="M100 72 C150 72 176 108 176 154 C176 206 146 228 100 228 C54 228 24 206 24 154 C24 108 50 72 100 72 Z" fill="none" stroke="#16161D" stroke-width="6" stroke-linejoin="round"/><g transform="translate(100,80) scale(0.6) translate(-100,-80)"><path d="M70 82 Q68 54 100 48 Q132 54 130 82" fill="#EAD5A0" stroke="#16161D" stroke-width="6" stroke-linejoin="round" stroke-linecap="round"/><g stroke="#ad9e76" stroke-width="2.6" fill="none" opacity="0.6" stroke-linecap="round"><path d="M100 64 Q78 80 74 102"/><path d="M100 64 Q90 86 88 106"/><path d="M100 64 L100 108"/><path d="M100 64 Q110 86 112 106"/><path d="M100 64 Q122 80 126 102"/></g><path d="M100 44 Q113 47 109 60 Q100 55 95 63 Q90 49 100 44 Z" fill="#fee9b4" stroke="#16161D" stroke-width="5" stroke-linejoin="round"/><path d="M99 52 Q104 55 100 60" stroke="#16161D" stroke-width="2" fill="none" opacity="0.55" stroke-linecap="round"/></g><ellipse cx="52" cy="168" rx="12" ry="7" fill="#F08AA8" opacity="0.85"/><ellipse cx="148" cy="168" rx="12" ry="7" fill="#F08AA8" opacity="0.85"/><ellipse cx="76" cy="150" rx="13" ry="17" fill="#16161D"/><circle cx="72" cy="143" r="5" fill="#FFFFFF"/><circle cx="80" cy="157" r="2.4" fill="#FFFFFF" opacity="0.85"/><ellipse cx="124" cy="150" rx="13" ry="17" fill="#16161D"/><circle cx="120" cy="143" r="5" fill="#FFFFFF"/><circle cx="128" cy="157" r="2.4" fill="#FFFFFF" opacity="0.85"/><path d="M88 176 Q100 192 112 176 Q100 184 88 176 Z" fill="#16161D"/><path d="M96 182 Q100 187 105 182 Z" fill="#F08AA8"/></svg>